<?xml version="1.0" encoding="utf-8"?>
<!-- Generator: Adobe Illustrator 16.0.0, SVG Export Plug-In . SVG Version: 6.00 Build 0)  -->
<!DOCTYPE svg PUBLIC "-//W3C//DTD SVG 1.1//EN" "http://www.w3.org/Graphics/SVG/1.1/DTD/svg11.dtd">
<svg version="1.1" id="Layer_1" xmlns="http://www.w3.org/2000/svg" xmlns:xlink="http://www.w3.org/1999/xlink" x="0px" y="0px"
	 width="56.69px" height="17.01px" viewBox="0 0 56.69 17.01" enable-background="new 0 0 56.69 17.01" xml:space="preserve">
<g>
	<circle fill="#FFFFFF" stroke="#000000" stroke-width="1.2337" stroke-miterlimit="10" cx="36.643" cy="-20.39" r="2.394"/>
	<polyline fill="#FFFFFF" stroke="#000000" stroke-width="1.1006" stroke-linecap="round" stroke-miterlimit="10" points="
		36.643,-18.007 36.643,-11.185 36.643,-11.185 	"/>
	<polyline fill="#FFFFFF" stroke="#000000" stroke-width="1.1006" stroke-linecap="round" stroke-miterlimit="10" points="
		33.074,-7.616 36.643,-11.185 40.192,-7.635 	"/>
	
		<line fill="#FFFFFF" stroke="#000000" stroke-width="1.1006" stroke-linecap="round" stroke-miterlimit="10" x1="33.074" y1="-14.678" x2="40.192" y2="-14.678"/>
</g>
<g>
	
		<rect x="-2.519" y="5.296" fill="#FFFFFF" stroke="#000000" stroke-width="0.9432" stroke-linecap="round" stroke-miterlimit="10" width="5.07" height="5.069"/>
	<g>
		<circle fill="#FFFFFF" stroke="#000000" stroke-width="1.1636" stroke-miterlimit="10" cx="5.917" cy="3.079" r="2.258"/>
		<polyline fill="#FFFFFF" stroke="#000000" stroke-width="1.038" stroke-linecap="round" stroke-miterlimit="10" points="
			5.917,5.327 5.917,11.762 5.917,11.762 		"/>
		<polyline fill="#FFFFFF" stroke="#000000" stroke-width="1.038" stroke-linecap="round" stroke-miterlimit="10" points="
			3.435,15.127 5.917,11.762 9.264,15.109 		"/>
		
			<polyline fill="none" stroke="#000000" stroke-width="1.038" stroke-linecap="round" stroke-linejoin="round" stroke-miterlimit="10" points="
			2.787,7.532 5.917,7.316 7.915,10.365 0.223,9.416 		"/>
	</g>
</g>
<g>
	
		<rect x="54.032" y="5.296" fill="#FFFFFF" stroke="#000000" stroke-width="0.9432" stroke-linecap="round" stroke-miterlimit="10" width="5.069" height="5.069"/>
	<g>
		<circle fill="#FFFFFF" stroke="#000000" stroke-width="1.1636" stroke-miterlimit="10" cx="50.667" cy="3.079" r="2.257"/>
		<polyline fill="#FFFFFF" stroke="#000000" stroke-width="1.038" stroke-linecap="round" stroke-miterlimit="10" points="
			50.666,5.327 50.666,11.762 50.666,11.762 		"/>
		<polyline fill="#FFFFFF" stroke="#000000" stroke-width="1.038" stroke-linecap="round" stroke-miterlimit="10" points="
			53.147,15.127 50.666,11.762 47.319,15.109 		"/>
		
			<polyline fill="none" stroke="#000000" stroke-width="1.038" stroke-linecap="round" stroke-linejoin="round" stroke-miterlimit="10" points="
			53.796,7.532 50.666,7.316 48.668,10.365 56.36,9.416 		"/>
	</g>
</g>
<g>
	
		<rect x="20.992" y="10.273" fill="#FFFFFF" stroke="#000000" stroke-width="0.9432" stroke-linecap="round" stroke-miterlimit="10" width="5.07" height="5.068"/>
	<g>
		<circle fill="#FFFFFF" stroke="#000000" stroke-width="1.1636" stroke-miterlimit="10" cx="22.686" cy="3.405" r="2.258"/>
		<polyline fill="#FFFFFF" stroke="#000000" stroke-width="1.038" stroke-linecap="round" stroke-miterlimit="10" points="
			21.655,5.412 19.996,11.762 19.996,11.762 		"/>
		<polyline fill="none" stroke="#000000" stroke-width="1.038" stroke-linecap="round" stroke-miterlimit="10" points="
			17.514,15.127 19.996,11.762 20.825,12.592 		"/>
		
			<polyline fill="none" stroke="#000000" stroke-width="1.038" stroke-linecap="round" stroke-linejoin="round" stroke-miterlimit="10" points="
			21.921,10.99 19.996,7.316 23.526,7.925 25.065,10.273 		"/>
	</g>
</g>
<g>
	<g>
		<circle fill="#FFFFFF" stroke="#000000" stroke-width="1.1636" stroke-miterlimit="10" cx="36.441" cy="3.079" r="2.257"/>
		<polyline fill="#FFFFFF" stroke="#000000" stroke-width="1.038" stroke-linecap="round" stroke-miterlimit="10" points="
			36.863,5.296 37.924,11.762 37.924,11.762 		"/>
		<polyline fill="none" stroke="#000000" stroke-width="1.038" stroke-linecap="round" stroke-miterlimit="10" points="
			40.405,15.127 37.924,11.762 35.333,15.156 		"/>
		
			<polyline fill="none" stroke="#000000" stroke-width="1.038" stroke-linecap="round" stroke-linejoin="round" stroke-miterlimit="10" points="
			39.272,10.273 38.698,7.316 35.333,8.337 33.629,11.168 		"/>
	</g>
</g>
<circle cx="5.917" cy="3.079" r="0.926"/>
<circle cx="22.687" cy="3.405" r="0.926"/>
<circle cx="36.451" cy="3.079" r="0.926"/>
<circle cx="50.666" cy="3.079" r="0.925"/>
<line stroke="#000000" stroke-miterlimit="10" x1="0.031" y1="16.094" x2="56.706" y2="16.094"/>
</svg>
